Coordinates
version=1
nRows=9
nColumns=63
inDegrees=yes

Units are S.I. units (second, meters, Newtons, ...)
If the header above contains a line with 'inDegrees', this indicates whether rotational values are in degrees (yes) or radians (no).

endheader
time	pelvis_tilt	pelvis_list	pelvis_rotation	pelvis_tx	pelvis_ty	pelvis_tz	hip_flexion_r	hip_adduction_r	hip_rotation_r	knee_angle_r	knee_angle_r_beta	ankle_angle_r	subtalar_angle_r	mtp_angle_r	hip_flexion_l	hip_adduction_l	hip_rotation_l	knee_angle_l	knee_angle_l_beta	ankle_angle_l	subtalar_angle_l	mtp_angle_l	L5_S1_Flex_Ext	L5_S1_Lat_Bending	L5_S1_axial_rotation	L4_L5_Flex_Ext	L4_L5_Lat_Bending	L4_L5_axial_rotation	L3_L4_Flex_Ext	L3_L4_Lat_Bending	L3_L4_axial_rotation	L2_L3_Flex_Ext	L2_L3_Lat_Bending	L2_L3_axial_rotation	L1_L2_Flex_Ext	L1_L2_Lat_Bending	L1_L2_axial_rotation	L1_T12_Flex_Ext	L1_T12_Lat_Bending	L1_T12_axial_rotation	Abs_r3	Abs_r2	Abs_r1	Abs_t1	Abs_t2	neck_flexion	neck_bending	neck_rotation	arm_flex_r	arm_add_r	arm_rot_r	elbow_flex_r	pro_sup_r	wrist_flex_r	wrist_dev_r	arm_flex_l	arm_add_l	arm_rot_l	elbow_flex_l	pro_sup_l	wrist_flex_l	wrist_dev_l
2.683333	-1.518421	-4.374751	80.594227	0.209522	0.898075	0.593719	3.798477	1.606169	-9.600244	6.613751	0.115432	29.651837	15.467860	0.000000	11.342668	-2.893590	6.457976	17.102678	0.298498	33.944260	-6.143055	0.000000	-0.180095	1.776931	0.136061	-0.334455	2.363318	0.144565	-0.295878	4.320430	0.144565	-0.205831	4.320430	0.119054	-0.167236	3.623518	0.110550	-0.102906	2.752466	0.102046	-1.286402	20.100998	0.756733	0.000000	0.000000	21.684489	-8.792468	26.500982	5.778739	-24.349998	124.054037	2.657192	2.935744	0.027632	-7.106408	-10.418663	-32.181373	27.420194	29.554561	69.856253	-2.944740	-0.799294
2.700000	-1.583951	-4.169572	80.730048	0.209800	0.898411	0.593517	3.520603	1.513889	-9.920307	6.639539	0.115882	29.585553	15.314009	0.000000	10.588923	-2.591637	7.901181	16.248472	0.283589	33.376387	-7.547135	0.000000	-0.176484	1.671493	0.019069	-0.327748	2.223086	0.020261	-0.289945	4.064069	0.020261	-0.201703	4.064069	0.016685	-0.163883	3.408509	0.015493	-0.100843	2.589143	0.014302	-1.260605	18.908266	0.106055	0.000000	0.000000	21.166868	-8.015791	26.423589	5.612669	-23.229308	126.096169	2.231207	2.528398	-0.834301	-7.955793	-8.948714	-29.807430	25.617803	28.762628	68.779239	-3.367114	-2.664138
2.716667	-1.696878	-3.898664	80.878769	0.210199	0.898827	0.593344	3.161239	1.377891	-10.341383	6.620011	0.115541	29.613156	15.349749	0.000000	9.825030	-2.260064	9.370277	15.507978	0.270665	32.784398	-8.991937	0.000000	-0.177470	1.556635	-0.062401	-0.329579	2.070324	-0.066301	-0.291565	3.784801	-0.066301	-0.202830	3.784801	-0.054601	-0.164798	3.174289	-0.050701	-0.101406	2.411227	-0.046801	-1.267649	17.608962	-0.347054	0.000000	0.000000	20.709002	-7.361036	25.961908	5.325345	-22.123750	128.313139	1.857148	2.154379	-1.907907	-8.912596	-7.114336	-27.905738	25.135670	28.103891	67.625344	-3.814791	-4.465442
2.733333	-1.848390	-3.575469	81.031338	0.210773	0.899284	0.593166	2.705679	1.228405	-10.502506	6.496167	0.113380	29.654550	15.127054	0.000000	9.066846	-1.938895	10.618201	14.875782	0.259631	32.289139	-10.151959	0.000000	-0.181094	1.433950	-0.109873	-0.336309	1.907153	-0.116740	-0.297519	3.486506	-0.116740	-0.206972	3.486506	-0.096139	-0.168164	2.924111	-0.089272	-0.103477	2.221188	-0.082405	-1.293535	16.221128	-0.611080	0.000000	0.000000	20.352385	-6.806078	25.146949	4.932459	-21.039514	130.511323	1.544196	1.893128	-3.075367	-10.011988	-5.058423	-26.398056	25.536416	27.600542	66.945835	-4.491251	-6.117235
2.750000	-2.038372	-3.218103	81.178716	0.211494	0.899749	0.592991	2.174741	1.064164	-10.426264	6.267963	0.109397	29.696703	14.692605	0.000000	8.333054	-1.629749	11.623571	14.338188	0.250249	31.912167	-11.020162	0.000000	-0.185777	1.304640	-0.124857	-0.345007	1.735171	-0.132660	-0.305213	3.172101	-0.132660	-0.212325	3.172101	-0.109250	-0.172513	2.660421	-0.101446	-0.106153	2.020887	-0.093643	-1.326988	14.758344	-0.694416	0.000000	0.000000	20.129050	-6.327235	24.019101	4.457782	-19.990997	132.373177	1.318993	1.818451	-4.205413	-11.261464	-2.976419	-25.214413	26.485151	27.180554	66.818836	-5.462841	-7.624341
2.766667	-2.252378	-2.840066	81.323316	0.212313	0.900223	0.592821	1.573337	0.903172	-9.986270	5.922970	0.103375	29.686488	13.875032	0.000000	7.636211	-1.350345	12.314360	13.880604	0.242262	31.682108	-11.489635	0.000000	-0.190867	1.172236	-0.112723	-0.354458	1.559074	-0.119768	-0.313575	2.850175	-0.119768	-0.218142	2.850175	-0.098633	-0.177239	2.390424	-0.091587	-0.109061	1.815794	-0.084542	-1.363342	13.260571	-0.626932	0.000000	0.000000	20.025383	-5.919198	22.660536	3.951975	-18.959203	134.404200	1.086359	1.781536	-5.215056	-12.517618	-0.928032	-24.315803	27.919363	26.737250	67.100182	-6.698278	-9.072585
2.783333	-2.483320	-2.476432	81.470321	0.213155	0.900652	0.592669	0.962450	0.743139	-9.415101	5.512947	0.096219	29.660410	12.960056	0.000000	7.010969	-1.095460	12.753318	13.487357	0.235399	31.571144	-11.643289	0.000000	-0.193849	1.039228	-0.086368	-0.359997	1.382174	-0.091766	-0.318474	2.526780	-0.091766	-0.221550	2.526780	-0.075572	-0.180008	2.119195	-0.070174	-0.110765	1.609765	-0.064776	-1.384643	11.755959	-0.480352	0.000000	0.000000	20.034058	-5.530717	21.193883	3.480152	-17.989780	136.163211	0.965681	1.707657	-6.012264	-13.681006	0.837577	-23.596763	29.069049	26.301699	67.920269	-7.987221	-10.333973
2.800000	-2.720845	-2.139400	81.579614	0.213981	0.901035	0.592560	0.374762	0.583390	-8.794030	5.075124	0.088578	29.617308	12.096133	0.000000	6.446313	-0.874119	12.928505	13.119391	0.228977	31.534747	-11.525774	0.000000	-0.195673	0.909149	-0.042188	-0.363384	1.209169	-0.044825	-0.321471	2.210506	-0.044825	-0.223635	2.210506	-0.036915	-0.181702	1.853938	-0.034278	-0.111808	1.408272	-0.031641	-1.397673	10.284480	-0.234639	0.000000	0.000000	20.124988	-5.152397	19.735315	3.036279	-17.131752	136.962086	1.031053	1.788540	-6.567161	-14.553625	2.362169	-23.016261	29.953325	25.846278	68.915823	-9.239208	-11.379381
2.816667	-2.937611	-1.866778	81.685774	0.214649	0.901319	0.592490	-0.130894	0.444102	-8.218094	4.661953	0.081366	29.561077	11.317664	0.000000	5.987760	-0.695988	12.922234	12.785549	0.223150	31.546609	-11.206394	0.000000	-0.192475	0.787692	0.003708	-0.357446	1.047631	0.003940	-0.316217	1.915195	0.003940	-0.219980	1.915195	0.003244	-0.178732	1.606262	0.003013	-0.109980	1.220135	0.002781	-1.374831	8.910533	0.020622	0.000000	0.000000	20.265938	-4.749542	18.467292	2.667173	-16.406082	137.027836	1.259250	1.884831	-6.852129	-14.985140	3.549597	-22.498699	30.293547	25.456789	69.905004	-10.415391	-11.970149
